<svg xmlns="http://www.w3.org/2000/svg" xmlns:xlink="http://www.w3.org/1999/xlink" viewBox="0,0,256,256" width="24px" height="24px" fill-rule="nonzero"><g fill="#fca311" fill-rule="nonzero" stroke="none" stroke-width="1" stroke-linecap="butt" stroke-linejoin="miter" stroke-miterlimit="10" stroke-dasharray="" stroke-dashoffset="0" font-family="none" font-weight="none" font-size="none" text-anchor="none" style="mix-blend-mode: normal"><g transform="scale(16,16)"><path d="M1,1.01563v12.97852h13v-12.97852zM2.96875,3.27344h0.57422v1.32227c0,0.249 -0.07522,0.44827 -0.19922,0.57227c-0.124,0.124 -0.32522,0.19922 -0.57422,0.19922c-0.374,0.025 -0.57366,-0.12327 -0.72266,-0.32227l0.375,-0.34961c0.1,0.125 0.19727,0.19922 0.32227,0.19922c0.15,0 0.22461,-0.09983 0.22461,-0.29883zM3.66797,3.29883h1.66992v0.47461h-1.09766v0.32422h0.99609v0.44922h-0.99609v0.32227h1.12109v0.5h-1.66992zM5.46289,3.29883h1.81836v0.5h-0.62305v1.56836h-0.57227v-1.56836h-0.62305zM11.66797,5.81641c0.349,0 0.62366,0.09944 0.84766,0.27344l-0.29883,0.40039c-0.199,-0.125 -0.39827,-0.19922 -0.57227,-0.19922c-0.15,0 -0.19922,0.05 -0.19922,0.125c0,0.1 0.07561,0.12522 0.34961,0.19922c0.474,0.1 0.77148,0.24944 0.77148,0.64844c-0.001,0.423 -0.32366,0.67188 -0.84766,0.67188c-0.374,0.025 -0.72366,-0.10022 -0.97266,-0.32422l0.32422,-0.375c0.199,0.174 0.42288,0.25 0.67188,0.25c0.15,0 0.25,-0.05039 0.25,-0.15039c0,-0.1 -0.07561,-0.12522 -0.34961,-0.19922c-0.449,-0.1 -0.77344,-0.22444 -0.77344,-0.64844c0,-0.374 0.29983,-0.67187 0.79883,-0.67187zM2.09766,5.8418h1.07227c0.249,0 0.44827,0.07483 0.57227,0.17383c0.075,0.075 0.125,0.19766 0.125,0.34766c0,0.249 -0.12522,0.37461 -0.32422,0.47461c0.249,0.075 0.39844,0.226 0.39844,0.5c0,0.349 -0.29944,0.57227 -0.77344,0.57227h-1.07031zM4.04102,5.8418h0.97266c0.324,0 0.52187,0.07366 0.67188,0.22266c0.125,0.125 0.17578,0.27561 0.17578,0.47461c0,0.324 -0.17383,0.52344 -0.42383,0.64844l0.32031,0.46484l0.77539,-1.81055h0.54883l0.87109,2.09375h-0.62305l-0.14844,-0.375h-0.79687l-0.15039,0.375h-0.59766l0.00977,-0.02539h-0.35937l-0.42383,-0.62305h-0.25v0.62305h-0.57227zM8.0293,5.8418h0.57227v2.06836h-0.57227zM8.75195,5.8418h0.52344l0.8457,1.0957v-1.0957h0.57422v2.06836h-0.49805l-0.87305,-1.12109v1.14648h-0.57227zM2.66992,6.31641v0.37305h0.34961c0.174,-0.026 0.27344,-0.07522 0.27344,-0.19922c0,-0.125 -0.09905,-0.17383 -0.24805,-0.17383zM4.61328,6.33984v0.5h0.375c0.199,0 0.29883,-0.101 0.29883,-0.25c0,-0.175 -0.12383,-0.25 -0.29883,-0.25zM6.80859,6.51563l-0.22656,0.57227h0.44922zM2.64453,7.08789v0.375h0.44922c0.174,0 0.27344,-0.07522 0.27344,-0.19922c0,-0.125 -0.09944,-0.17578 -0.27344,-0.17578zM2.09766,12.02344h4.75977v0.79687h-4.75977z"></path></g></g></svg>